<?xml version="1.0" encoding="UTF-8"?>
<!DOCTYPE svg PUBLIC "-//W3C//DTD SVG 1.1//EN" "http://www.w3.org/Graphics/SVG/1.1/DTD/svg11.dtd">
<svg xmlns="http://www.w3.org/2000/svg" version="1.1" width="500px" height="500px" style="shape-rendering:geometricPrecision; text-rendering:geometricPrecision; image-rendering:optimizeQuality; fill-rule:evenodd; clip-rule:evenodd" xmlns:xlink="http://www.w3.org/1999/xlink">
<g><path style="opacity:1" fill="#fffefc" d="M -0.5,-0.5 C 166.167,-0.5 332.833,-0.5 499.5,-0.5C 499.5,166.167 499.5,332.833 499.5,499.5C 332.833,499.5 166.167,499.5 -0.5,499.5C -0.5,332.833 -0.5,166.167 -0.5,-0.5 Z"/></g>
<g><path style="opacity:1" fill="#f97a25" d="M 151.5,146.5 C 152.833,146.5 154.167,146.5 155.5,146.5C 155.778,148.346 155.111,149.68 153.5,150.5C 151.889,149.68 151.222,148.346 151.5,146.5 Z"/></g>
<g><path style="opacity:1" fill="#fa7e2b" d="M 368.5,149.5 C 373.262,150.092 374.596,152.592 372.5,157C 366.403,157.147 365.07,154.647 368.5,149.5 Z"/></g>
<g><path style="opacity:1" fill="#f9761d" d="M 377.5,151.5 C 381.138,150.737 382.638,152.07 382,155.5C 377.415,157.413 375.915,156.079 377.5,151.5 Z"/></g>
<g><path style="opacity:1" fill="#fa8132" d="M 296.5,151.5 C 300.35,151.701 301.35,153.534 299.5,157C 294.722,157.073 293.722,155.24 296.5,151.5 Z"/></g>
<g><path style="opacity:1" fill="#fa7e2b" d="M 328.5,163.5 C 329.463,162.637 329.463,161.97 328.5,161.5C 316.798,168.346 305.464,175.679 294.5,183.5C 294.062,183.565 293.728,183.399 293.5,183C 294.5,182 295.5,181 296.5,180C 296.167,179.833 295.833,179.667 295.5,179.5C 293.079,181.934 290.412,183.934 287.5,185.5C 288.167,184.5 288.833,183.5 289.5,182.5C 293.019,179.579 296.686,176.913 300.5,174.5C 299.031,176.105 299.365,176.605 301.5,176C 304.106,172.882 307.106,170.382 310.5,168.5C 319.775,162.684 329.441,158.351 339.5,155.5C 336.344,158.907 332.677,161.574 328.5,163.5 Z"/></g>
<g><path style="opacity:1" fill="#fa7c29" d="M 285.5,162.5 C 290.493,162.997 291.493,165.164 288.5,169C 287.216,169.684 286.049,169.517 285,168.5C 284.322,166.402 284.489,164.402 285.5,162.5 Z"/></g>
<g><path style="opacity:1" fill="#fa7f2d" d="M 170.5,163.5 C 175.493,163.997 176.493,166.164 173.5,170C 172.216,170.684 171.049,170.517 170,169.5C 169.322,167.402 169.489,165.402 170.5,163.5 Z"/></g>
<g><path style="opacity:1" fill="#fb9752" d="M 328.5,163.5 C 328.027,164.906 327.027,165.573 325.5,165.5C 325.973,164.094 326.973,163.427 328.5,163.5 Z"/></g>
<g><path style="opacity:1" fill="#f97720" d="M 366.5,166.5 C 371.351,165.868 373.851,167.868 374,172.5C 371.633,175.932 368.966,176.265 366,173.5C 365.297,171.071 365.463,168.738 366.5,166.5 Z"/></g>
<g><path style="opacity:1" fill="#fa802e" d="M 286.5,183.5 C 285.833,184.5 285.167,185.5 284.5,186.5C 281.609,188.531 278.442,190.198 275,191.5C 274.5,191.167 274,190.833 273.5,190.5C 275.065,188.177 276.232,185.844 277,183.5C 260.352,197.392 259.185,195.892 273.5,179C 274.167,178.333 274.833,178.333 275.5,179C 273.668,180.489 272.835,182.322 273,184.5C 273.75,183.874 274.584,183.374 275.5,183C 284.068,175.263 293.068,168.096 302.5,161.5C 303.583,162.365 303.749,163.365 303,164.5C 295.53,170.968 288.364,177.802 281.5,185C 283.189,184.866 284.856,184.366 286.5,183.5 Z"/></g>
<g><path style="opacity:1" fill="#fa8030" d="M 344.5,171.5 C 348.029,170.889 349.862,172.223 350,175.5C 347.136,178.326 344.969,177.826 343.5,174C 343.743,173.098 344.077,172.265 344.5,171.5 Z"/></g>
<g><path style="opacity:1" fill="#fda66b" d="M 310.5,168.5 C 307.106,170.382 304.106,172.882 301.5,176C 299.365,176.605 299.031,176.105 300.5,174.5C 302.379,171.885 304.712,169.719 307.5,168C 308.577,167.53 309.577,167.697 310.5,168.5 Z"/></g>
<g><path style="opacity:1" fill="#f97821" d="M 142.5,174.5 C 150.219,173.87 152.219,176.87 148.5,183.5C 140.411,184.777 138.411,181.777 142.5,174.5 Z"/></g>
<g><path style="opacity:1" fill="#f97922" d="M 167.5,174.5 C 171.161,174.35 172.161,175.85 170.5,179C 166.707,179.487 165.707,177.987 167.5,174.5 Z"/></g>
<g><path style="opacity:1" fill="#fb8a3f" d="M 186.5,175.5 C 189.166,175.066 190.333,176.066 190,178.5C 186.403,180.066 185.237,179.066 186.5,175.5 Z"/></g>
<g><path style="opacity:1" fill="#f97923" d="M 195.5,179.5 C 198.5,179.167 199.833,180.5 199.5,183.5C 198.167,183.5 196.833,183.5 195.5,183.5C 195.5,182.167 195.5,180.833 195.5,179.5 Z"/></g>
<g><path style="opacity:1" fill="#fa8335" d="M 179.5,181.5 C 181.465,181.948 181.798,182.948 180.5,184.5C 179.614,183.675 179.281,182.675 179.5,181.5 Z"/></g>
<g><path style="opacity:1" fill="#fda265" d="M 294.5,183.5 C 292.211,185.448 289.878,187.448 287.5,189.5C 286.304,189.154 286.304,188.654 287.5,188C 286.906,187.536 286.239,187.369 285.5,187.5C 285.833,186.5 286.5,185.833 287.5,185.5C 290.412,183.934 293.079,181.934 295.5,179.5C 295.833,179.667 296.167,179.833 296.5,180C 295.5,181 294.5,182 293.5,183C 293.728,183.399 294.062,183.565 294.5,183.5 Z"/></g>
<g><path style="opacity:1" fill="#f97b27" d="M 325.5,165.5 C 318.929,170.564 312.763,176.231 307,182.5C 303.569,190.4 306.069,193.567 314.5,192C 316.459,191.069 318.459,190.236 320.5,189.5C 322.304,184.297 325.971,182.13 331.5,183C 333.833,181.833 336.167,180.667 338.5,179.5C 338.833,179.833 339.167,180.167 339.5,180.5C 336.909,182.38 334.409,184.38 332,186.5C 331.77,193.007 328.603,195.174 322.5,193C 319.333,196.167 316.167,199.333 313,202.5C 312.506,204.134 312.34,205.801 312.5,207.5C 317.009,207.29 321.342,206.29 325.5,204.5C 326.72,204.887 327.387,205.72 327.5,207C 325.05,211.784 321.55,215.617 317,218.5C 315.72,218.387 314.887,217.72 314.5,216.5C 315.711,214.578 317.044,212.745 318.5,211C 315.223,211.201 311.889,211.368 308.5,211.5C 309.363,204.625 312.696,199.125 318.5,195C 317.833,194.333 317.167,194.333 316.5,195C 312.576,198.21 308.41,201.044 304,203.5C 302.72,203.387 301.887,202.72 301.5,201.5C 299.257,200.526 296.924,200.192 294.5,200.5C 294.338,198.473 294.505,196.473 295,194.5C 302.78,182.217 312.947,172.55 325.5,165.5 Z"/></g>
<g><path style="opacity:1" fill="#ffc59d" d="M 289.5,182.5 C 288.833,183.5 288.167,184.5 287.5,185.5C 286.5,185.833 285.833,186.5 285.5,187.5C 284.746,189.446 283.412,190.279 281.5,190C 282.71,188.961 283.71,187.794 284.5,186.5C 285.167,185.5 285.833,184.5 286.5,183.5C 287.105,181.519 288.105,181.185 289.5,182.5 Z"/></g>
<g><path style="opacity:1" fill="#f97923" d="M 163.5,185.5 C 165.048,185.821 165.715,186.821 165.5,188.5C 162.752,188.598 162.086,187.598 163.5,185.5 Z"/></g>
<g><path style="opacity:1" fill="#f97b26" d="M 315.5,184.5 C 319.075,185.207 319.242,186.207 316,187.5C 314.317,186.824 314.15,185.824 315.5,184.5 Z"/></g>
<g><path style="opacity:1" fill="#fa8131" d="M 157.5,186.5 C 160.548,186.494 161.048,187.494 159,189.5C 157.961,188.756 157.461,187.756 157.5,186.5 Z"/></g>
<g><path style="opacity:1" fill="#f9751a" d="M 145.5,186.5 C 147.465,186.948 147.798,187.948 146.5,189.5C 145.614,188.675 145.281,187.675 145.5,186.5 Z"/></g>
<g><path style="opacity:1" fill="#f97922" d="M 345.5,190.5 C 348.91,190.384 350.244,192.05 349.5,195.5C 345.065,196.078 343.732,194.411 345.5,190.5 Z"/></g>
<g><path style="opacity:1" fill="#f9761d" d="M 307.5,219.5 C 298.889,213.52 289.889,208.02 280.5,203C 271.786,199.819 262.786,197.986 253.5,197.5C 249.057,196.199 244.391,195.532 239.5,195.5C 228.813,195.168 218.146,195.501 207.5,196.5C 214.203,205.405 220.537,214.572 226.5,224C 246.708,225.819 266.374,230.152 285.5,237C 301.566,236.406 314.566,242.24 324.5,254.5C 324.5,255.167 324.167,255.5 323.5,255.5C 319.298,255.817 315.298,255.483 311.5,254.5C 313.912,254.756 315.579,253.756 316.5,251.5C 308.633,243.032 298.8,238.699 287,238.5C 274.774,239.835 273.607,244.002 283.5,251C 286.618,252.727 289.951,253.561 293.5,253.5C 294.795,254.488 296.128,255.488 297.5,256.5C 296.497,257.302 294.831,258.136 292.5,259C 293.328,259.915 294.328,260.581 295.5,261C 321.839,262.058 348.172,262.225 374.5,261.5C 378.511,260.969 382.344,259.969 386,258.5C 387.046,259.772 387.546,261.272 387.5,263C 386.862,268.152 386.362,273.319 386,278.5C 384.878,280.624 383.378,282.457 381.5,284C 382.996,284.507 384.163,284.007 385,282.5C 385.624,284.464 385.124,286.131 383.5,287.5C 383.709,288.086 384.043,288.586 384.5,289C 381.124,290.899 377.457,291.732 373.5,291.5C 369.629,291.185 365.962,291.518 362.5,292.5C 333.182,294.136 303.848,295.469 274.5,296.5C 274.101,300.226 272.434,303.226 269.5,305.5C 269.167,305.333 268.833,305.167 268.5,305C 270.625,303.263 271.458,301.096 271,298.5C 269.333,300.833 267.667,303.167 266,305.5C 266.615,303.244 266.948,300.911 267,298.5C 265.748,300.001 264.748,301.668 264,303.5C 259.643,306.129 259.309,305.462 263,301.5C 263.667,300.5 263.667,299.5 263,298.5C 255.726,308.818 246.226,311.318 234.5,306C 223.232,297.277 218.732,285.777 221,271.5C 225.246,257.132 234.746,250.966 249.5,253C 236.632,246.081 226.465,248.914 219,261.5C 210.625,251.448 200.792,243.281 189.5,237C 186.28,235.475 182.947,234.808 179.5,235C 190.665,241.175 200.165,249.342 208,259.5C 208.931,261.459 209.764,263.459 210.5,265.5C 208.813,266.568 207.146,266.401 205.5,265C 200.607,258.089 194.607,252.755 187.5,249C 195.204,256.192 201.538,264.359 206.5,273.5C 206.444,274.737 205.944,275.737 205,276.5C 201.559,272.018 197.392,268.851 192.5,267C 200.366,273.941 206.366,282.107 210.5,291.5C 209.448,291.649 208.448,291.483 207.5,291C 199.636,283.967 191.969,276.8 184.5,269.5C 185.718,268.839 187.051,268.172 188.5,267.5C 186.257,266.526 183.924,266.192 181.5,266.5C 173.937,261.638 165.77,257.971 157,255.5C 156.167,255.833 155.333,256.167 154.5,256.5C 165.904,264.395 176.904,272.895 187.5,282C 189.351,283.684 191.018,285.517 192.5,287.5C 192.167,288.5 191.5,289.167 190.5,289.5C 171.22,274.524 149.886,263.19 126.5,255.5C 129.647,253.84 132.98,252.673 136.5,252C 133.702,250.402 130.702,249.235 127.5,248.5C 128.167,246.833 128.833,245.167 129.5,243.5C 135.93,240.982 142.597,239.315 149.5,238.5C 150.766,237.91 152.099,237.41 153.5,237C 149.514,236.501 145.514,236.334 141.5,236.5C 142.99,234.72 144.99,234.054 147.5,234.5C 170.81,231.383 194.143,228.883 217.5,227C 214.532,226.306 211.532,225.806 208.5,225.5C 196.179,226.808 183.846,227.975 171.5,229C 162.59,229.889 153.923,231.389 145.5,233.5C 144.005,233.585 143.005,232.919 142.5,231.5C 148.168,221.5 155.835,213.5 165.5,207.5C 161.559,209.14 157.892,211.306 154.5,214C 147.427,220.402 141.094,227.402 135.5,235C 130.202,237.371 125.202,240.204 120.5,243.5C 120.167,243.5 119.833,243.5 119.5,243.5C 119.628,241.91 120.295,240.577 121.5,239.5C 125.34,237.079 129.34,234.912 133.5,233C 139.416,223.749 146.749,215.749 155.5,209C 181.776,194.953 209.776,189.953 239.5,194C 251.576,195.012 263.576,196.679 275.5,199C 287.394,204.088 298.061,210.921 307.5,219.5 Z"/></g>
<g><path style="opacity:1" fill="#fff2e7" d="M 297.5,194.5 C 298.5,194.5 299.5,194.5 300.5,194.5C 300.833,197.5 299.5,198.833 296.5,198.5C 296.433,197.041 296.766,195.708 297.5,194.5 Z"/></g>
<g><path style="opacity:1" fill="#ffeee0" d="M 305.5,194.5 C 310.12,195.556 310.454,197.223 306.5,199.5C 304.296,198.218 303.962,196.551 305.5,194.5 Z"/></g>
<g><path style="opacity:1" fill="#f97419" d="M 238.5,196.5 C 243.029,197.273 247.695,197.94 252.5,198.5C 271.341,202.924 288.674,210.59 304.5,221.5C 299.343,222.211 294.01,222.211 288.5,221.5C 279.508,221.063 270.508,220.729 261.5,220.5C 250.784,220.673 240.118,221.173 229.5,222C 223.882,214.047 217.882,206.38 211.5,199C 220.364,196.9 229.364,196.066 238.5,196.5 Z"/></g>
<g><path style="opacity:1" fill="#febd90" d="M 239.5,195.5 C 244.391,195.532 249.057,196.199 253.5,197.5C 252.833,197.5 252.5,197.833 252.5,198.5C 247.695,197.94 243.029,197.273 238.5,196.5C 239.167,196.5 239.5,196.167 239.5,195.5 Z"/></g>
<g><path style="opacity:1" fill="#f97923" d="M 138.5,198.5 C 146.036,197.92 148.536,201.253 146,208.5C 139.589,213.505 136.089,211.839 135.5,203.5C 135.323,201.032 136.323,199.365 138.5,198.5 Z"/></g>
<g><path style="opacity:1" fill="#ffcdab" d="M 194.5,197.5 C 195.833,198.167 197.167,198.833 198.5,199.5C 192.084,199.609 185.751,200.109 179.5,201C 184.386,199.362 189.386,198.195 194.5,197.5 Z"/></g>
<g><path style="opacity:1" fill="#fff9f4" d="M 194.5,197.5 C 199.74,196.538 203.907,198.205 207,202.5C 210.782,208.23 213.615,214.397 215.5,221C 215.415,222.107 215.081,223.107 214.5,224C 207.5,224.667 200.5,224.667 193.5,224C 192.642,222.43 191.975,220.763 191.5,219C 191.748,217.251 192.748,216.418 194.5,216.5C 196.604,216.799 198.604,216.466 200.5,215.5C 197.355,214.197 194.355,214.197 191.5,215.5C 190.883,215.611 190.383,215.944 190,216.5C 189.505,218.473 189.338,220.473 189.5,222.5C 186.15,222.335 182.817,222.502 179.5,223C 170.314,225.088 161.148,227.255 152,229.5C 150.027,229.691 148.527,229.024 147.5,227.5C 156.272,219.108 166.605,213.275 178.5,210C 184.4,208.324 190.4,207.157 196.5,206.5C 199.699,206.9 202.699,207.9 205.5,209.5C 205.833,209.167 206.167,208.833 206.5,208.5C 205.333,206.167 204.167,203.833 203,201.5C 201.67,200.418 200.17,199.751 198.5,199.5C 197.167,198.833 195.833,198.167 194.5,197.5 Z"/></g>
<g><path style="opacity:1" fill="#fff1e6" d="M 252.5,198.5 C 252.5,197.833 252.833,197.5 253.5,197.5C 262.786,197.986 271.786,199.819 280.5,203C 289.889,208.02 298.889,213.52 307.5,219.5C 310.545,220.545 312.545,222.545 313.5,225.5C 310.167,225.167 306.833,224.833 303.5,224.5C 304.263,223.732 305.263,223.232 306.5,223C 305.956,222.283 305.289,221.783 304.5,221.5C 288.674,210.59 271.341,202.924 252.5,198.5 Z"/></g>
<g><path style="opacity:1" fill="#fecdab" d="M 171.5,204.5 C 172.799,202.901 174.465,202.401 176.5,203C 174.975,204.009 173.308,204.509 171.5,204.5 Z"/></g>
<g><path style="opacity:1" fill="#fa7d2b" d="M 372.5,202.5 C 378.488,202.664 379.821,205.164 376.5,210C 375.101,210.595 373.768,210.428 372.5,209.5C 371.286,207.141 371.286,204.808 372.5,202.5 Z"/></g>
<g><path style="opacity:1" fill="#ffefe2" d="M 140.5,203.5 C 144.423,204.983 144.423,206.65 140.5,208.5C 138.07,206.963 138.07,205.296 140.5,203.5 Z"/></g>
<g><path style="opacity:1" fill="#fff4eb" d="M 239.5,195.5 C 239.5,196.167 239.167,196.5 238.5,196.5C 229.364,196.066 220.364,196.9 211.5,199C 217.882,206.38 223.882,214.047 229.5,222C 240.118,221.173 250.784,220.673 261.5,220.5C 270.508,220.729 279.508,221.063 288.5,221.5C 276.833,222.167 265.167,222.833 253.5,223.5C 252.127,223.343 250.793,223.51 249.5,224C 272.077,226.095 294.077,230.761 315.5,238C 317.844,238.837 319.844,240.171 321.5,242C 323.134,242.494 324.801,242.66 326.5,242.5C 327.492,242.328 328.158,242.662 328.5,243.5C 327.761,243.369 327.094,243.536 326.5,244C 331.508,244.869 331.175,245.536 325.5,246C 327.539,247.926 329.206,250.093 330.5,252.5C 329.833,252.5 329.5,252.833 329.5,253.5C 327.139,250.14 324.139,247.474 320.5,245.5C 319.833,245.667 319.167,245.833 318.5,246C 321.039,248.37 323.372,250.87 325.5,253.5C 324.833,253.5 324.5,253.833 324.5,254.5C 314.566,242.24 301.566,236.406 285.5,237C 266.374,230.152 246.708,225.819 226.5,224C 220.537,214.572 214.203,205.405 207.5,196.5C 218.146,195.501 228.813,195.168 239.5,195.5 Z"/></g>
<g><path style="opacity:1" fill="#fecca9" d="M 171.5,204.5 C 169.819,206.008 167.819,207.008 165.5,207.5C 166.911,205.461 168.911,204.461 171.5,204.5 Z"/></g>
<g><path style="opacity:1" fill="#fa883b" d="M 339.5,207.5 C 340.675,207.281 341.675,207.614 342.5,208.5C 340.948,209.798 339.948,209.465 339.5,207.5 Z"/></g>
<g><path style="opacity:1" fill="#f97a25" d="M 347.5,211.5 C 348.5,211.5 349.5,211.5 350.5,211.5C 350.5,212.5 350.5,213.5 350.5,214.5C 349.5,214.5 348.5,214.5 347.5,214.5C 347.5,213.5 347.5,212.5 347.5,211.5 Z"/></g>
<g><path style="opacity:1" fill="#f97a24" d="M 363.5,212.5 C 367.161,212.35 368.161,213.85 366.5,217C 362.707,217.487 361.707,215.987 363.5,212.5 Z"/></g>
<g><path style="opacity:1" fill="#fdbf94" d="M 191.5,215.5 C 194.355,214.197 197.355,214.197 200.5,215.5C 198.604,216.466 196.604,216.799 194.5,216.5C 193.791,215.596 192.791,215.263 191.5,215.5 Z"/></g>
<g><path style="opacity:1" fill="#fa8332" d="M 343.5,213.5 C 345.465,213.948 345.798,214.948 344.5,216.5C 343.614,215.675 343.281,214.675 343.5,213.5 Z"/></g>
<g><path style="opacity:1" fill="#fb924b" d="M 328.5,216.5 C 330.625,217.368 330.791,218.368 329,219.5C 327.317,218.824 327.15,217.824 328.5,216.5 Z"/></g>
<g><path style="opacity:1" fill="#fa802f" d="M 129.5,219.5 C 133.161,219.35 134.161,220.85 132.5,224C 129.041,224.145 128.041,222.645 129.5,219.5 Z"/></g>
<g><path style="opacity:1" fill="#f97a23" d="M 354.5,218.5 C 356.337,218.639 356.67,219.306 355.5,220.5C 354.702,220.043 354.369,219.376 354.5,218.5 Z"/></g>
<g><path style="opacity:1" fill="#f9751a" d="M 253.5,223.5 C 270.191,223.241 286.857,223.575 303.5,224.5C 306.833,224.833 310.167,225.167 313.5,225.5C 331.89,227.945 349.89,232.112 367.5,238C 372.162,238.993 373.496,241.493 371.5,245.5C 366.551,243.092 361.218,241.592 355.5,241C 347.5,240.333 339.5,240.333 331.5,241C 329.618,241.198 327.952,241.698 326.5,242.5C 324.801,242.66 323.134,242.494 321.5,242C 319.844,240.171 317.844,238.837 315.5,238C 294.077,230.761 272.077,226.095 249.5,224C 250.793,223.51 252.127,223.343 253.5,223.5 Z"/></g>
<g><path style="opacity:1" fill="#ffc7a1" d="M 288.5,221.5 C 294.01,222.211 299.343,222.211 304.5,221.5C 305.289,221.783 305.956,222.283 306.5,223C 305.263,223.232 304.263,223.732 303.5,224.5C 286.857,223.575 270.191,223.241 253.5,223.5C 265.167,222.833 276.833,222.167 288.5,221.5 Z"/></g>
<g><path style="opacity:1" fill="#fa812f" d="M 365.5,223.5 C 367.465,223.948 367.798,224.948 366.5,226.5C 365.614,225.675 365.281,224.675 365.5,223.5 Z"/></g>
<g><path style="opacity:1" fill="#fc9049" d="M 395.5,223.5 C 397.625,224.368 397.791,225.368 396,226.5C 394.317,225.824 394.15,224.824 395.5,223.5 Z"/></g>
<g><path style="opacity:1" fill="#ffeadb" d="M 147.5,234.5 C 147.158,233.662 146.492,233.328 145.5,233.5C 153.923,231.389 162.59,229.889 171.5,229C 183.846,227.975 196.179,226.808 208.5,225.5C 211.532,225.806 214.532,226.306 217.5,227C 194.143,228.883 170.81,231.383 147.5,234.5 Z"/></g>
<g><path style="opacity:1" fill="#ffefe2" d="M 246.5,232.5 C 245.081,233.451 243.415,233.784 241.5,233.5C 233.167,233.5 224.833,233.5 216.5,233.5C 216.5,238.167 216.5,242.833 216.5,247.5C 215.833,247.833 215.167,248.167 214.5,248.5C 214.5,244.833 214.5,241.167 214.5,237.5C 215.451,236.081 215.784,234.415 215.5,232.5C 213.901,232.768 212.568,232.434 211.5,231.5C 223.216,230.069 234.883,230.402 246.5,232.5 Z"/></g>
<g><path style="opacity:1" fill="#fb863a" d="M 377.5,230.5 C 379.346,230.222 380.68,230.889 381.5,232.5C 380.68,234.111 379.346,234.778 377.5,234.5C 377.5,233.167 377.5,231.833 377.5,230.5 Z"/></g>
<g><path style="opacity:1" fill="#fcb482" d="M 211.5,231.5 C 212.568,232.434 213.901,232.768 215.5,232.5C 215.784,234.415 215.451,236.081 214.5,237.5C 214.5,236.167 214.5,234.833 214.5,233.5C 212.143,233.663 209.81,233.497 207.5,233C 208.563,231.812 209.897,231.312 211.5,231.5 Z"/></g>
<g><path style="opacity:1" fill="#ffcdab" d="M 246.5,232.5 C 249.253,233.022 251.92,233.856 254.5,235C 249.997,235.111 245.664,234.611 241.5,233.5C 243.415,233.784 245.081,233.451 246.5,232.5 Z"/></g>
<g><path style="opacity:1" fill="#fdc198" d="M 141.5,236.5 C 145.514,236.334 149.514,236.501 153.5,237C 152.099,237.41 150.766,237.91 149.5,238.5C 146.833,237.833 144.167,237.167 141.5,236.5 Z"/></g>
<g><path style="opacity:1" fill="#fdc197" d="M 165.5,239.5 C 165.312,237.897 165.812,236.563 167,235.5C 167.348,237.14 166.848,238.473 165.5,239.5 Z"/></g>
<g><path style="opacity:1" fill="#fff2e8" d="M 235.5,238.5 C 241.072,237.99 246.405,238.823 251.5,241C 256.436,245.596 260.936,250.43 265,255.5C 269.995,253.292 275.161,252.125 280.5,252C 275.151,253.836 269.818,255.669 264.5,257.5C 266.617,262.001 267.784,266.668 268,271.5C 264.847,261.358 259.014,253.191 250.5,247C 241.868,243.509 233.368,243.676 225,247.5C 225.195,245.255 226.362,243.422 228.5,242C 230.925,240.787 233.259,239.621 235.5,238.5 Z"/></g>
<g><path style="opacity:1" fill="#fffcf8" d="M 311.5,254.5 C 305.471,254.575 299.471,254.241 293.5,253.5C 289.951,253.561 286.618,252.727 283.5,251C 273.607,244.002 274.774,239.835 287,238.5C 298.8,238.699 308.633,243.032 316.5,251.5C 315.579,253.756 313.912,254.756 311.5,254.5 Z"/></g>
<g><path style="opacity:1" fill="#f9771e" d="M 390.5,238.5 C 392.337,238.639 392.67,239.306 391.5,240.5C 390.702,240.043 390.369,239.376 390.5,238.5 Z"/></g>
<g><path style="opacity:1" fill="#fff3ea" d="M 165.5,239.5 C 165.281,240.675 165.614,241.675 166.5,242.5C 169.758,241.583 173.091,241.249 176.5,241.5C 176.5,242.833 176.5,244.167 176.5,245.5C 172.629,245.185 168.962,245.518 165.5,246.5C 164.596,245.791 164.263,244.791 164.5,243.5C 164.232,241.901 164.566,240.568 165.5,239.5 Z"/></g>
<g><path style="opacity:1" fill="#ffdfc8" d="M 371.5,245.5 C 370.833,245.5 370.5,245.833 370.5,246.5C 356.721,242.534 342.721,241.534 328.5,243.5C 328.158,242.662 327.492,242.328 326.5,242.5C 327.952,241.698 329.618,241.198 331.5,241C 339.5,240.333 347.5,240.333 355.5,241C 361.218,241.592 366.551,243.092 371.5,245.5 Z"/></g>
<g><path style="opacity:1" fill="#fa8537" d="M 377.5,242.5 C 377.897,241.475 378.563,241.308 379.5,242C 383.753,245.42 384.587,249.587 382,254.5C 380.867,256.211 379.367,256.711 377.5,256C 381.828,253.11 382.661,249.277 380,244.5C 379.292,243.619 378.458,242.953 377.5,242.5 Z"/></g>
<g><path style="opacity:1" fill="#fca96f" d="M 164.5,243.5 C 164.263,244.791 164.596,245.791 165.5,246.5C 165.544,258.071 164.877,258.237 163.5,247C 163.514,245.615 163.848,244.449 164.5,243.5 Z"/></g>
<g><path style="opacity:1" fill="#fa802d" d="M 329.5,253.5 C 329.631,254.239 329.464,254.906 329,255.5C 328.184,254.177 327.017,253.511 325.5,253.5C 323.372,250.87 321.039,248.37 318.5,246C 319.167,245.833 319.833,245.667 320.5,245.5C 324.139,247.474 327.139,250.14 329.5,253.5 Z"/></g>
<g><path style="opacity:1" fill="#fb8b40" d="M 375.5,246.5 C 376.68,248.856 376.346,251.189 374.5,253.5C 374.167,253 373.833,252.5 373.5,252C 374.32,250.2 374.986,248.366 375.5,246.5 Z"/></g>
<g><path style="opacity:1" fill="#fdbe93" d="M 119.5,243.5 C 119.833,243.5 120.167,243.5 120.5,243.5C 119.824,245.859 118.991,248.192 118,250.5C 117.725,247.942 118.225,245.608 119.5,243.5 Z"/></g>
<g><path style="opacity:1" fill="#f9771f" d="M 370.5,246.5 C 372.487,249.859 372.987,253.525 372,257.5C 369.734,258.956 367.234,259.79 364.5,260C 355.815,260.428 347.148,260.094 338.5,259C 335.039,257.695 332.372,255.529 330.5,252.5C 329.206,250.093 327.539,247.926 325.5,246C 331.175,245.536 331.508,244.869 326.5,244C 327.094,243.536 327.761,243.369 328.5,243.5C 342.721,241.534 356.721,242.534 370.5,246.5 Z"/></g>
<g><path style="opacity:1" fill="#ffe3d0" d="M 332.5,249.5 C 342.658,248.341 352.992,248.175 363.5,249C 365.952,249.29 368.285,249.956 370.5,251C 357.896,249.892 345.23,249.392 332.5,249.5 Z"/></g>
<g><path style="opacity:1" fill="#fcab73" d="M 216.5,247.5 C 215.912,253.146 215.246,253.479 214.5,248.5C 215.167,248.167 215.833,247.833 216.5,247.5 Z"/></g>
<g><path style="opacity:1" fill="#fdb37f" d="M 293.5,253.5 C 299.471,254.241 305.471,254.575 311.5,254.5C 315.298,255.483 319.298,255.817 323.5,255.5C 314.83,256.01 306.163,256.343 297.5,256.5C 296.128,255.488 294.795,254.488 293.5,253.5 Z"/></g>
<g><path style="opacity:1" fill="#fff5ed" d="M 190.5,260.5 C 191.5,260.5 192.5,260.5 193.5,260.5C 193.5,261.5 193.5,262.5 193.5,263.5C 190.433,263.879 189.433,262.879 190.5,260.5 Z"/></g>
<g><path style="opacity:1" fill="#fba568" d="M 181.5,266.5 C 183.924,266.192 186.257,266.526 188.5,267.5C 187.051,268.172 185.718,268.839 184.5,269.5C 183.167,268.833 182.167,267.833 181.5,266.5 Z"/></g>
<g><path style="opacity:1" fill="#ffefe3" d="M 322.5,267.5 C 325.885,266.79 328.219,267.956 329.5,271C 326.335,274.541 323.668,274.208 321.5,270C 321.743,269.098 322.077,268.265 322.5,267.5 Z"/></g>
<g><path style="opacity:1" fill="#fb8537" d="M 113.5,262.5 C 122.617,262.518 131.617,264.351 140.5,268C 153.756,273.294 166.422,279.628 178.5,287C 164.161,281.004 149.828,274.671 135.5,268C 128.323,265.539 120.99,263.706 113.5,262.5 Z"/></g>
<g><path style="opacity:1" fill="#ffe9d9" d="M 239.5,267.5 C 239.784,269.415 239.451,271.081 238.5,272.5C 237.84,268.687 236.674,265.021 235,261.5C 232.441,263.336 231.775,265.669 233,268.5C 232.632,267.09 231.799,266.09 230.5,265.5C 229.16,266.867 227.827,268.2 226.5,269.5C 229.619,260.273 235.952,256.773 245.5,259C 257.662,265.509 262.162,275.675 259,289.5C 258.527,291.779 257.527,293.779 256,295.5C 257.56,290.007 258.227,284.34 258,278.5C 257.751,277.376 257.251,276.376 256.5,275.5C 254.503,276.747 252.503,277.581 250.5,278C 252.376,275.954 254.376,274.121 256.5,272.5C 256.167,272.167 255.833,271.833 255.5,271.5C 254.38,272.833 253.047,273.333 251.5,273C 253.616,271.829 254.282,270.329 253.5,268.5C 246.388,275.136 245.721,274.303 251.5,266C 247.916,261.195 243.25,259.695 237.5,261.5C 239.086,263.173 239.753,265.173 239.5,267.5 Z"/></g>
<g><path style="opacity:1" fill="#fff9f3" d="M 315.5,285.5 C 312.375,286.479 309.042,286.813 305.5,286.5C 299.604,286.556 295.271,284.056 292.5,279C 294.846,272.996 299.179,270.996 305.5,273C 312.043,276.456 312.043,280.123 305.5,284C 308.827,284.61 312.161,285.11 315.5,285.5 Z"/></g>
<g><path style="opacity:1" fill="#fca265" d="M 226.5,269.5 C 226.007,271.806 225.674,274.139 225.5,276.5C 227.103,276.312 228.437,276.812 229.5,278C 227.423,278.148 225.423,277.648 223.5,276.5C 224.058,273.873 225.058,271.54 226.5,269.5 Z"/></g>
<g><path style="opacity:1" fill="#fa7e2c" d="M 118.5,275.5 C 127.29,277.228 135.29,281.228 142.5,287.5C 140.534,288.372 138.534,288.205 136.5,287C 129.963,283.905 123.963,280.071 118.5,275.5 Z"/></g>
<g><path style="opacity:1" fill="#fdb888" d="M 239.5,267.5 C 240.82,270.899 240.82,274.399 239.5,278C 241.937,279.279 242.437,280.779 241,282.5C 240.228,281.151 239.061,280.318 237.5,280C 237.344,278.33 238.01,276.663 239.5,275C 239.257,274.098 238.923,273.265 238.5,272.5C 239.451,271.081 239.784,269.415 239.5,267.5 Z"/></g>
<g><path style="opacity:1" fill="#fde2ce" d="M 224.5,279.5 C 226.854,279.838 229.187,280.338 231.5,281C 230.333,281.167 229.167,281.333 228,281.5C 226.319,281.392 225.152,280.725 224.5,279.5 Z"/></g>
<g><path style="opacity:1" fill="#fff0e4" d="M 245.5,283.5 C 250.14,281.635 253.806,282.969 256.5,287.5C 256.167,287.833 255.833,288.167 255.5,288.5C 252.347,286.45 249.014,284.784 245.5,283.5 Z"/></g>
<g><path style="opacity:1" fill="#fa8131" d="M 103.5,286.5 C 106.179,286.673 108.513,287.673 110.5,289.5C 107.07,290.95 104.737,289.95 103.5,286.5 Z"/></g>
<g><path style="opacity:1" fill="#fdaf78" d="M 224.5,286.5 C 226.628,285.371 228.961,285.204 231.5,286C 229.214,287.664 226.881,287.83 224.5,286.5 Z"/></g>
<g><path style="opacity:1" fill="#fcae78" d="M 315.5,285.5 C 317.429,285.231 319.095,285.731 320.5,287C 315.316,287.816 310.316,287.65 305.5,286.5C 309.042,286.813 312.375,286.479 315.5,285.5 Z"/></g>
<g><path style="opacity:1" fill="#fa7e2b" d="M 120.5,302.5 C 113.313,302.825 106.313,302.491 99.5,301.5C 107.452,301.117 115.286,300.117 123,298.5C 123.667,296.833 123.667,295.167 123,293.5C 119.167,288.333 114.667,283.833 109.5,280C 115.779,283.574 121.613,288.074 127,293.5C 129.023,295.769 129.856,298.436 129.5,301.5C 126.482,301.704 123.482,302.037 120.5,302.5 Z"/></g>
<g><path style="opacity:1" fill="#fa7d29" d="M 153.5,287.5 C 158.58,288.538 162.913,290.872 166.5,294.5C 162.929,295.248 159.595,294.415 156.5,292C 154.859,290.871 153.859,289.371 153.5,287.5 Z"/></g>
<g><path style="opacity:1" fill="#ffcaa5" d="M 247.5,287.5 C 249.803,289.325 252.136,291.158 254.5,293C 251.105,292.624 248.772,290.79 247.5,287.5 Z"/></g>
<g><path style="opacity:1" fill="#fdbe92" d="M 362.5,292.5 C 365.962,291.518 369.629,291.185 373.5,291.5C 373.5,291.833 373.5,292.167 373.5,292.5C 372.609,293.11 371.609,293.443 370.5,293.5C 368.052,292.527 365.385,292.194 362.5,292.5 Z"/></g>
<g><path style="opacity:1" fill="#ffdbc2" d="M 235.5,288.5 C 235.577,291.025 234.41,293.358 232,295.5C 232.579,293.008 233.746,290.675 235.5,288.5 Z"/></g>
<g><path style="opacity:1" fill="#f97720" d="M 373.5,292.5 C 374.5,292.5 375.5,292.5 376.5,292.5C 376.096,299.083 372.763,303.583 366.5,306C 358.71,309.268 350.71,310.102 342.5,308.5C 339.263,307.208 336.263,305.374 333.5,303C 314.975,302.163 296.641,302.663 278.5,304.5C 276.537,305.684 274.537,306.517 272.5,307C 274.782,304.603 276.116,301.769 276.5,298.5C 307.896,297.918 339.229,296.252 370.5,293.5C 371.609,293.443 372.609,293.11 373.5,292.5 Z"/></g>
<g><path style="opacity:1" fill="#fa8739" d="M 111.5,295.5 C 113.093,294.133 114.426,294.466 115.5,296.5C 115.167,296.833 114.833,297.167 114.5,297.5C 113.482,296.807 112.482,296.141 111.5,295.5 Z"/></g>
<g><path style="opacity:1" fill="#fdc6a0" d="M 242.5,289.5 C 243.808,293.019 243.808,296.685 242.5,300.5C 241.686,298.234 241.186,295.9 241,293.5C 240.667,294.5 240.333,295.5 240,296.5C 239.833,295.833 239.667,295.167 239.5,294.5C 240.267,292.643 241.267,290.976 242.5,289.5 Z"/></g>
<g><path style="opacity:1" fill="#f97821" d="M 154.5,297.5 C 160.051,297.776 164.718,299.942 168.5,304C 163.25,306.319 158.75,305.153 155,300.5C 154.517,299.552 154.351,298.552 154.5,297.5 Z"/></g>
<g><path style="opacity:1" fill="#fff2e7" d="M 342.5,300.5 C 343.675,300.281 344.675,300.614 345.5,301.5C 343.948,302.798 342.948,302.465 342.5,300.5 Z"/></g>
<g><path style="opacity:1" fill="#fa9751" d="M 99.5,301.5 C 106.313,302.491 113.313,302.825 120.5,302.5C 110.675,303.658 100.675,303.825 90.5,303C 93.4781,302.304 96.4781,301.804 99.5,301.5 Z"/></g>
<g><path style="opacity:1" fill="#fa7c28" d="M 130.5,301.5 C 135.908,303.033 141.241,304.866 146.5,307C 141.604,308.713 136.604,310.046 131.5,311C 119.5,311.667 107.5,311.667 95.5,311C 93.7444,310.798 92.0777,310.298 90.5,309.5C 94.1224,308.675 97.789,308.175 101.5,308C 97.4592,307.827 93.4592,307.327 89.5,306.5C 101.475,305.335 113.475,304.501 125.5,304C 127.744,303.95 129.411,303.117 130.5,301.5 Z"/></g>
<g><path style="opacity:1" fill="#f97b25" d="M 180.5,301.5 C 184.244,301.871 187.244,303.538 189.5,306.5C 184.558,308.198 181.558,306.531 180.5,301.5 Z"/></g>
<g><path style="opacity:1" fill="#ffeada" d="M 342.5,308.5 C 341.508,308.328 340.842,308.662 340.5,309.5C 337.402,308.784 334.736,307.284 332.5,305C 317.158,304.43 301.825,304.596 286.5,305.5C 284.052,304.527 281.385,304.194 278.5,304.5C 296.641,302.663 314.975,302.163 333.5,303C 336.263,305.374 339.263,307.208 342.5,308.5 Z"/></g>
<g><path style="opacity:1" fill="#feddc6" d="M 353.5,301.5 C 356.797,301.329 357.131,301.995 354.5,303.5C 353.702,303.043 353.369,302.376 353.5,301.5 Z"/></g>
<g><path style="opacity:1" fill="#fb9855" d="M 376.5,302.5 C 390.171,302.333 403.837,302.5 417.5,303C 403.514,304.166 389.514,304.5 375.5,304C 376.056,303.617 376.389,303.117 376.5,302.5 Z"/></g>
<g><path style="opacity:1" fill="#f9761d" d="M 340.5,309.5 C 341.901,309.971 343.234,310.638 344.5,311.5C 341.5,312.333 338.5,313.167 335.5,314C 337,314.167 338.5,314.333 340,314.5C 356.786,312.77 373.619,312.103 390.5,312.5C 392.167,313.167 393.833,313.833 395.5,314.5C 389.598,313.962 383.932,314.795 378.5,317C 386.446,318.523 394.446,320.19 402.5,322C 401.207,322.49 399.873,322.657 398.5,322.5C 393.156,322.334 387.823,322.501 382.5,323C 383.737,323.232 384.737,323.732 385.5,324.5C 356.899,326.975 328.233,328.142 299.5,328C 298.833,328.333 298.167,328.667 297.5,329C 319.146,330.182 340.812,330.849 362.5,331C 339.868,332.721 317.201,333.888 294.5,334.5C 292.076,334.192 289.743,334.526 287.5,335.5C 293.798,336.496 300.132,336.83 306.5,336.5C 318.5,336.5 330.5,336.5 342.5,336.5C 349.5,337.167 356.5,337.833 363.5,338.5C 296.57,343.446 229.57,344.613 162.5,342C 155.811,341.554 149.144,340.887 142.5,340C 141.692,339.692 141.025,339.192 140.5,338.5C 142.423,337.692 144.423,337.192 146.5,337C 178.897,335.617 211.231,333.45 243.5,330.5C 238.868,329.672 234.202,329.172 229.5,329C 196.167,328.667 162.833,328.333 129.5,328C 121.201,326.77 112.868,325.937 104.5,325.5C 103.167,324.833 101.833,324.167 100.5,323.5C 113.268,323.56 125.935,322.56 138.5,320.5C 134.987,319.068 131.32,318.235 127.5,318C 119.507,317.5 111.507,317.334 103.5,317.5C 98.5,316.833 93.5,316.167 88.5,315.5C 111.837,314.211 135.17,312.878 158.5,311.5C 163.032,311.182 167.366,311.515 171.5,312.5C 164.992,313.21 158.658,314.71 152.5,317C 154,317.167 155.5,317.333 157,317.5C 173.048,314.557 189.214,312.557 205.5,311.5C 213.336,311.702 221.003,312.868 228.5,315C 225.123,315.452 221.789,316.118 218.5,317C 233.59,318.06 248.59,317.393 263.5,315C 269.596,313.787 274.596,310.787 278.5,306C 281.146,305.503 283.813,305.336 286.5,305.5C 301.825,304.596 317.158,304.43 332.5,305C 334.736,307.284 337.402,308.784 340.5,309.5 Z"/></g>
<g><path style="opacity:1" fill="#fca466" d="M 158.5,311.5 C 164.319,310.347 170.319,310.181 176.5,311C 174.846,311.608 173.179,312.108 171.5,312.5C 167.366,311.515 163.032,311.182 158.5,311.5 Z"/></g>
<g><path style="opacity:1" fill="#fff7f1" d="M 312.5,312.5 C 316.31,312.379 319.477,313.712 322,316.5C 322.667,317.5 322.667,318.5 322,319.5C 317.849,321.36 314.516,320.36 312,316.5C 311.421,315.072 311.588,313.738 312.5,312.5 Z"/></g>
<g><path style="opacity:1" fill="#fcbb8e" d="M 390.5,312.5 C 392.924,312.192 395.257,312.526 397.5,313.5C 397.043,314.298 396.376,314.631 395.5,314.5C 393.833,313.833 392.167,313.167 390.5,312.5 Z"/></g>
<g><path style="opacity:1" fill="#fa8130" d="M 408.5,314.5 C 411.722,314.108 414.722,314.608 417.5,316C 416,316.167 414.5,316.333 413,316.5C 411.014,316.431 409.514,315.765 408.5,314.5 Z"/></g>
<g><path style="opacity:1" fill="#fec196" d="M 88.5,315.5 C 93.5,316.167 98.5,316.833 103.5,317.5C 95.7795,317.762 88.1128,317.262 80.5,316C 83.146,315.503 85.8127,315.336 88.5,315.5 Z"/></g>
<g><path style="opacity:1" fill="#ffe6d3" d="M 195.5,317.5 C 205.84,317.702 205.673,318.702 195,320.5C 193.833,320.333 192.667,320.167 191.5,320C 192.858,319.066 194.192,318.232 195.5,317.5 Z"/></g>
<g><path style="opacity:1" fill="#fff6ef" d="M 277.5,321.5 C 280.833,321.5 282.5,323.167 282.5,326.5C 277.58,327.585 275.913,325.918 277.5,321.5 Z"/></g>
<g><path style="opacity:1" fill="#fdcdaa" d="M 398.5,322.5 C 394.307,323.283 389.973,323.949 385.5,324.5C 384.737,323.732 383.737,323.232 382.5,323C 387.823,322.501 393.156,322.334 398.5,322.5 Z"/></g>
<g><path style="opacity:1" fill="#fca264" d="M 100.5,323.5 C 101.833,324.167 103.167,324.833 104.5,325.5C 100.103,325.575 95.77,325.075 91.5,324C 94.4816,323.502 97.4816,323.335 100.5,323.5 Z"/></g>
<g><path style="opacity:1" fill="#fdd1b1" d="M 294.5,334.5 C 298.5,335.167 302.5,335.833 306.5,336.5C 300.132,336.83 293.798,336.496 287.5,335.5C 289.743,334.526 292.076,334.192 294.5,334.5 Z"/></g>
<g><path style="opacity:1" fill="#fca96f" d="M 342.5,336.5 C 350.507,336.334 358.507,336.5 366.5,337C 366.833,337.333 367.167,337.667 367.5,338C 366.207,338.49 364.873,338.657 363.5,338.5C 356.5,337.833 349.5,337.167 342.5,336.5 Z"/></g>
<g><path style="opacity:1" fill="#f9761d" d="M 220.5,348.5 C 231.838,348.333 243.172,348.5 254.5,349C 266.093,350.229 265.76,351.562 253.5,353C 243.5,353.667 233.5,353.667 223.5,353C 219.972,352.911 216.638,352.244 213.5,351C 215.833,349.957 218.166,349.124 220.5,348.5 Z"/></g>
</svg>
